# xmcd
# Copyright (C) 1995-1998 Ti Kan
#
# Track frame offsets:
#       150
#       15542
#       32426
#       48278
#       63916
#       79785
#
# Disc length: 1287 seconds
#
# Revision: 0
# Processed by: cddbd v1.5.2PL0 Copyright (c) Steve Scherf et al.
# Submitted via: CD-Transfer v1.0
#
DISCID=3a050506
DTITLE=Mirjana - 
DYEAR=08
DGENRE=
TTITLE0=Jeder Augenblick Zählt (08)
TTITLE1=Gründe Gäb´s  Genug (08)
TTITLE2=Mehr, Viel Mehr (08)
TTITLE3=Mein Herz Sagt Ja (08)
TTITLE4=Meine Liebe Wird Nicht Schweigen (08)
TTITLE5=Ritmo De La Noche (08)
EXTD=
EXTT0=
EXTT1=
EXTT2=
EXTT3=
EXTT4=
EXTT5=
PLAYORDER=
